#!OML:ASF H:\Punching\Project 1\Capture day 1\Session 1\female.ASF
:FULLY-SPECIFIED
:DEGREES
1913
root 0.289487 15.4382 8.04653 13.4099 -18.7551 -0.978321
lowerback -0.0444226 -2.19162 1.98304
upperback -5.61286 -2.89091 0.262868
thorax -5.8745 -1.54021 -0.685189
lowerneck -7.56037 8.46317 15.0077
upperneck 31.0605 11.7199 -8.44839
head 13.0952 5.93245 -4.20676
rclavicle 4.64411e-014 1.58034e-014
rhumerus -27.6529 23.7842 -69.3719
rradius 109.727
rwrist -15.081
rhand -16.6832 -5.85914
rfingers 7.12502
rthumb 9.54099 -35.6231
lclavicle 4.64411e-014 1.58034e-014
lhumerus -26.2733 -23.7558 56.6878
lradius 95.4194
lwrist 5.18466
lhand -7.67452 15.9248
lfingers 7.12502
lthumb 18.222 45.0913
rfemur -8.358 6.62664 12.2808
rtibia 22.2451
rfoot -21.6735 -14.238
rtoes -13.0373
lfemur -28.616 -10.3336 2.50299
ltibia 16.373
lfoot -0.360215 25.1507
ltoes 5.15906
1914
root 0.197682 15.4538 7.9593 13.5647 -18.1705 -0.93352
lowerback -0.146466 -2.19469 2.13179
upperback -5.61043 -2.89892 0.128226
thorax -5.82933 -1.55507 -0.911363
lowerneck -7.68504 8.3863 14.8776
upperneck 30.8933 11.5658 -8.31211
head 13.0061 5.86194 -4.14762
rclavicle 3.45761e-014 -4.37326e-015
rhumerus -29.4048 23.3885 -70.0753
rradius 108.136
rwrist -16.0168
rhand -16.7342 -6.33016
rfingers 7.12502
rthumb 9.49182 -36.0964
lclavicle 3.45761e-014 -4.37326e-015
lhumerus -28.6518 -22.775 57.7614
lradius 94.4151
lwrist 4.75114
lhand -8.04876 15.8865
lfingers 7.12502
lthumb 17.8619 45.0862
rfemur -8.65323 6.46341 12.7516
rtibia 22.3318
rfoot -21.67 -14.3885
rtoes -12.6805
lfemur -28.6274 -12.263 3.744
ltibia 14.9534
lfoot -0.501921 27.6104
ltoes 7.90477
1915
root 0.108273 15.4706 7.87433 13.7098 -17.5752 -0.864451
lowerback -0.252032 -2.19339 2.24873
upperback -5.61301 -2.90207 -0.00154964
thorax -5.78542 -1.56581 -1.11509
lowerneck -7.81342 8.29526 14.7331
upperneck 30.7445 11.3914 -8.1638
head 12.9215 5.78229 -4.08526
rclavicle 3.87692e-014 7.55382e-015
rhumerus -31.14 22.9327 -70.76
rradius 106.466
rwrist -16.9293
rhand -16.8134 -6.76946
rfingers 7.12502
rthumb 9.41543 -36.5392
lclavicle 3.87692e-014 7.55382e-015
lhumerus -30.889 -21.6863 58.8077
lradius 93.3077
lwrist 4.38318
lhand -8.42068 15.8706
lfingers 7.12502
lthumb 17.504 45.1026
rfemur -8.9764 6.2781 13.1809
rtibia 22.4798
rfoot -21.687 -14.5146
rtoes -12.3615
lfemur -28.772 -14.5056 5.10225
ltibia 13.7154
lfoot -1.40088 30.4525
ltoes 11.1216
1916
root 0.0216176 15.4847 7.79191 13.8378 -16.9788 -0.772126
lowerback -0.349681 -2.18703 2.32758
upperback -5.62366 -2.89901 -0.122205
thorax -5.75182 -1.57144 -1.28797
lowerneck -7.93317 8.19262 14.5771
upperneck 30.6139 11.2045 -8.01239
head 12.841 5.69668 -4.02279
rclavicle 1.93442e-014 7.95139e-015
rhumerus -32.8507 22.4295 -71.4119
rradius 104.727
rwrist -17.7873
rhand -16.9083 -7.2095
rfingers 7.12502
rthumb 9.3238 -36.9833
lclavicle 1.93442e-014 7.95139e-015
lhumerus -33.0103 -20.4914 59.8238
lradius 92.1321
lwrist 4.11958
lhand -8.7513 15.8915
lfingers 7.12502
lthumb 17.1858 45.1515
rfemur -9.32752 6.08286 13.5771
rtibia 22.7088
rfoot -21.7371 -14.6626
rtoes -12.0346
lfemur -29.0776 -17.0101 6.5588
ltibia 12.7391
lfoot -3.31403 33.472
ltoes 14.8271
1917
root -0.0614386 15.4963 7.71211 13.9468 -16.3886 -0.669224
lowerback -0.432249 -2.1704 2.38708
upperback -5.64069 -2.8819 -0.233463
thorax -5.73137 -1.56901 -1.44027
lowerneck -8.04445 8.07524 14.408
upperneck 30.4993 11.0011 -7.85904
head 12.7628 5.60299 -3.96094
rclavicle -5.66164e-014 -2.127e-014
rhumerus -34.5369 21.8785 -72.0196
rradius 102.926
rwrist -18.5797
rhand -17.0232 -7.63373
rfingers 7.12502
rthumb 9.21291 -37.4125
lclavicle -5.66164e-014 -2.127e-014
lhumerus -35.0169 -19.2221 60.7975
lradius 90.9117
lwrist 4.007
lhand -9.01734 15.9664
lfingers 7.12502
lthumb 16.9297 45.2486
rfemur -9.68611 5.88202 13.9569
rtibia 22.9873
rfoot -21.7988 -14.8566
rtoes -11.6926
lfemur -29.5244 -19.6193 8.04972
ltibia 12.0328
lfoot -6.43699 36.3206
ltoes 18.7987
1918
root -0.140557 15.5066 7.63517 14.0363 -15.8115 -0.56013
lowerback -0.501777 -2.14155 2.43711
upperback -5.66241 -2.84786 -0.334767
thorax -5.72139 -1.55752 -1.57717
lowerneck -8.14228 7.94511 14.2263
upperneck 30.3953 10.7867 -7.71118
head 12.6853 5.503 -3.90176
rclavicle 3.71044e-014 1.86858e-014
rhumerus -36.1823 21.2899 -72.5771
rradius 101.069
rwrist -19.309
rhand -17.1695 -8.07962
rfingers 7.12502
rthumb 9.07179 -37.8645
lclavicle 3.71044e-014 1.86858e-014
lhumerus -36.9173 -17.8981 61.726
lradius 89.6578
lwrist 4.06565
lhand -9.21475 16.1012
lfingers 7.12502
lthumb 16.7397 45.3995
rfemur -10.0506 5.69447 14.3264
rtibia 23.3169
rfoot -21.8735 -15.1185
rtoes -11.3115
lfemur -30.0802 -22.0204 9.40669
ltibia 11.6573
lfoot -10.4603 38.4822
ltoes 22.5074
